<svg width="50" height="50" viewBox="0 0 50 50" fill="none" xmlns="http://www.w3.org/2000/svg">
<path d="M44.7 21.1542C44.9562 22.5271 45.0958 23.9625 45.0958 25.4604C45.0958 37.1771 37.2542 45.5084 25.4104 45.5084C22.717 45.5092 20.0498 44.9793 17.5612 43.9489C15.0727 42.9186 12.8115 41.408 10.907 39.5034C9.00245 37.5989 7.49185 35.3378 6.4615 32.8492C5.43115 30.3606 4.90125 27.6935 4.90207 25C4.90125 22.3066 5.43115 19.6394 6.4615 17.1509C7.49185 14.6623 9.00245 12.4012 10.907 10.4966C12.8115 8.59208 15.0727 7.08148 17.5612 6.05113C20.0498 5.02078 22.717 4.49088 25.4104 4.4917C30.9479 4.4917 35.575 6.5292 39.125 9.83753L33.3437 15.6188V15.6042C31.1917 13.5542 28.4604 12.5021 25.4104 12.5021C18.6437 12.5021 13.1437 18.2188 13.1437 24.9875C13.1437 31.7542 18.6437 37.4834 25.4104 37.4834C31.55 37.4834 35.7292 33.9729 36.5875 29.1521H25.4104V21.1542H44.7021H44.7Z" fill="#2E0350"/>
</svg>
